/* XPM */
static char * bitcoin32_xpm[] = {
"32 32 52 1",
" 	c None",
".	c #843680",
"+	c #813680",
"@	c #803682",
"#	c #7D3682",
"$	c #87357E",
"%	c #85357E",
"&	c #8A357C",
"*	c #963377",
"=	c #933378",
"-	c #8E347A",
";	c #8B347C",
">	c #793784",
",	c #773785",
"'	c #9C3274",
")	c #993275",
"!	c #983276",
"~	c #8F347A",
"{	c #773886",
"]	c #A03172",
"^	c #9D3273",
"/	c #923379",
"(	c #823680",
"_	c #7C3783",
":	c #A43171",
"<	c #A13171",
"[	c #A7306F",
"}	c #A5306F",
"|	c #943378",
"1	c #89357C",
"2	c #AA306D",
"3	c #AE2F6C",
"4	c #AB2F6D",
"5	c #B22F6A",
"6	c #AF2F6B",
"7	c #783785",
"8	c #B32E69",
"9	c #B52E68",
"0	c #B92D66",
"a	c #B82D67",
"b	c #BC2D65",
"c	c #AD2F6C",
"d	c #BD2D65",
"e	c #C02C63",
"f	c #BD2D64",
"g	c #C12C63",
"h	c #C42C61",
"i	c #C12C62",
"j	c #C62B60",
"k	c #C72B5F",
"l	c #CA2B5E",
"m	c #CB2B5E",
"                                ",
"                                ",
"                                ",
"              .+@#              ",
"             $%.+@#             ",
"             &$%.+@             ",
"        *=  -;&  .+@  >,        ",
"      ')!   ~-;  %.+   >,{      ",
"     ]^')  =/~    %.(  _>,{     ",
"    :<]^   *=/    $%.   _>,{    ",
"   [}:<   )!*|    1$%.   _>,{   ",
"   2[}    ')!      &$%    _>,   ",
"  342     ^')  =/  ;&$     _>,  ",
" 5634    <]^   *=   ;&$    #_>7 ",
" 856     :<]  )!*=  -;&     #_> ",
" 985    [}:   ')!*   -;&    @#_ ",
"0a9     2[}  ]^')!*  ~-;     @#_",
"b0a    c42   <]^')!   ~-;    +@#",
"db0    634   :<]^')   /~-    .+@",
"efb   856   [}:  ^')   /~-   %.+",
"gef   985   2[}  ]^'   =/~   $%.",
"hie  0a9   342    ]^'   =/~  &$%",
"jhi  b0a   634    <]^   *=/  ;&$",
"kjh efb   856      <]^   *=/ -;&",
" kjhief   985  42  :<]   !*=/~- ",
" lkjhie  0a9   34   :<]  )!*=/~ ",
" mlkjh   b0a   63   }:<   )!*=/ ",
"  mlkj  efb   8563   }:<  ')!*  ",
"   ml    ef   9856   [}    ')   ",
"                                ",
"                                ",
"                                "};
