/* XPM */
static char * bitcoin64_xpm[] = {
"64 64 85 1",
" 	c None",
".	c #813680",
"+	c #803681",
"@	c #803682",
"#	c #7E3682",
"$	c #84357F",
"%	c #843680",
"&	c #833680",
"*	c #7D3682",
"=	c #87357E",
"-	c #85357E",
";	c #88357D",
">	c #8A357C",
",	c #923378",
"'	c #8B347C",
")	c #8B357C",
"!	c #773785",
"~	c #963377",
"{	c #953377",
"]	c #933378",
"^	c #8C347B",
"/	c #793784",
"(	c #793785",
"_	c #773886",
":	c #983276",
"<	c #963376",
"[	c #8F347A",
"}	c #8E347A",
"|	c #9A3274",
"1	c #993275",
"2	c #993276",
"3	c #7A3784",
"4	c #9D3274",
"5	c #9C3274",
"6	c #913379",
"7	c #9F3172",
"8	c #9D3273",
"9	c #923379",
"0	c #7C3783",
"a	c #A03172",
"b	c #A33171",
"c	c #A13171",
"d	c #7D3783",
"e	c #A43070",
"f	c #A43171",
"g	c #A7306F",
"h	c #A5306F",
"i	c #A8306E",
"j	c #AB306D",
"k	c #AA306D",
"l	c #AB2F6D",
"m	c #AE2F6C",
"n	c #AC2F6C",
"o	c #AE2F6B",
"p	c #B12F6A",
"q	c #AF2F6B",
"r	c #B22F6A",
"s	c #B32E69",
"t	c #B22E69",
"u	c #B52E69",
"v	c #B52E68",
"w	c #B82D67",
"x	c #B62E67",
"y	c #B92D67",
"z	c #B92D66",
"A	c #BA2D65",
"B	c #BD2D65",
"C	c #BC2D65",
"D	c #BF2D64",
"E	c #BD2D64",
"F	c #C02C63",
"G	c #BF2C63",
"H	c #C12C63",
"I	c #C32C62",
"J	c #C12C62",
"K	c #C42C61",
"L	c #C32C61",
"M	c #C62C61",
"N	c #C72B60",
"O	c #C62B60",
"P	c #C72B5F",
"Q	c #C82B5F",
"R	c #CA2B5E",
"S	c #CB2B5E",
"T	c #CC2B5E",
"                                                                ",
"                                                                ",
"                                                                ",
"                                                                ",
"                                                                ",
"                                                                ",
"                              .+@#                              ",
"                            $%&.+@#*                            ",
"                           =-$%&.+@#*                           ",
"                          ;==-$%&.+@#*                          ",
"                          >;==-$%&.+@#                          ",
"                  ,      ')>;==-$%&.+@#      !                  ",
"                ~{],     ^')>;=  $%&.+@     /(!_                ",
"               :<~{     [}^')>;  -$%&.+@     /(!_               ",
"             |12:<~     [[}^')    -$%&.+     3/(!__             ",
"            45|12:      6[[}^'    =-$%&.      3/(!__            ",
"           7845|12     ,96[[}      =-$%&.     03/(!__           ",
"          aa7845|      ],96[[      ==-$%&      03/(!__          ",
"         bcaa7845     ~{],96        ==-$%&     d03/(!__         ",
"        efbcaa78      <~{],9        ;==-$%      d03/(!__        ",
"       ghefbcaa      2:<~{]          ;==-$%      d03/(!__       ",
"      igghefb        12:<~{          >;==-$        03/(!__      ",
"     jkigghe        5|12:<            >;==-$        03/(!__     ",
"     ljkiggh        45|12:            )>;==-        d03/(!_     ",
"    mnljkig        7845|1      ,9      )>;==-        d03/(!_    ",
"    omnljk         a7845|     {],9     ')>;==         d03/(!    ",
"   pqomnl         caa7845     ~{],     ^')>;==         d03/(!   ",
"   rpqomn         bcaa78      <~{]      ^')>;=         *d03/(   ",
"  strpqo         efbcaa7     2:<~{]     }^')>;=         *d03/(  ",
"  ustrpq         hefbca      12:<~{      }^')>;         #*d03/  ",
"  vustr          ghefbc     5|12:<~{     [}^')>          #*d03  ",
" wxvust         igghef      45|12:<~      [}^')>         @#*d03 ",
" ywxvus         kigghe     7845|12:<~     [[}^')         +@#*d0 ",
" zywxv         ljkigg      a7845|12:<      [[}^')         +@#*d ",
" Azywx         nljkig     caa7845|12:<     6[[}^'         .+@#* ",
"BCAzyw        omnljk      bcaa7845|12:      6[[}^'        &.+@#*",
"BBCAzy        qomnlj     efbcaa  45|12:     96[[}^        %&.+@#",
"DEBCAz       rpqomn      hefbca  845|12      96[[}^       $%&.+@",
"FGEBCA       trpqom     gghefb    845|12     ,96[[}       -$%&.+",
"FFGEBC      ustrpq      igghef    7845|1      ,96[[}      =-$%&.",
"HFFGEB      vustrp     jkigghe    a7845|1     ],96[[      ==-$%&",
"IJFFGE     wxvustr     ljkigg      a7845|     {],96[[     ;==-$%",
"KLJFFG     ywxvus     mnljkig      aa7845|     {],96[     >;==-$",
"KKLJFF    Azywxvu     omnljk        aa7845     ~{],96[    )>;==-",
"MKKLJF    CAzywx      qomnlj        caa784      ~{],96    ')>;==",
"NOKKLJ    BCAzyw     rpqomn          caa784     <~{],9    ^')>;=",
" NOKKL   GEBCAz      trpqom          bcaa78      <~{],9   }^')> ",
" PNOKKL  FGEBCA     ustrpq            bcaa78     :<~{],  [[}^') ",
" QPNOKK JFFGEB      vustrp     jk     fbcaa7      :<~{], 6[[}^' ",
" RQPNOKKLJFFGE     wxvust      lj      fbcaa7     2:<~{],96[[}^ ",
"  RQPNOKKLJFF      ywxvus     mnlj     efbcaa      2:<~{],96[[  ",
"  SRQPNOKKLJF     Azywxv      omnl      efbcaa     12:<~{],96[  ",
"  SSRQPNOKKL      CAzywx     pqomnl     hefbca      12:<~{],96  ",
"   SSRQPNOKK     EBCAzy      rpqomn      hefbca     |12:<~{],   ",
"   TSSRQPNO      GEBCAz     strpqomn     ghefbc      |12:<~{]   ",
"    TSSRQPN      FGEBCA     ustrpqom     gghefb      5|12:<~    ",
"    TTSSRQ       FFGEB      vustrpqo      gghef       5|12:<    ",
"      TSS         FFG       xvustrpq       ggh         5|1      ",
"                                                                ",
"                                                                ",
"                                                                ",
"                                                                ",
"                                                                ",
"                                                                "};
