/* XPM */
static char * bitcoin16_xpm[] = {
"16 16 45 1",
" 	c None",
".	c #85357F",
"+	c #813680",
"@	c #9A3275",
"#	c #963377",
"$	c #8E347A",
"%	c #8A357C",
"&	c #783784",
"*	c #773886",
"=	c #A23171",
"-	c #9E3273",
";	c #913379",
">	c #85357E",
",	c #793784",
"'	c #A9306E",
")	c #A53070",
"!	c #89357D",
"~	c #AE2F6C",
"{	c #9D3273",
"]	c #B42E68",
"^	c #B12F6A",
"/	c #8D347A",
"(	c #7E3682",
"_	c #7A3784",
":	c #B92D66",
"<	c #B62E68",
"[	c #AA306D",
"}	c #993275",
"|	c #813681",
"1	c #7D3682",
"2	c #BE2D64",
"3	c #AD2F6C",
"4	c #C22C62",
"5	c #B52E68",
"6	c #C62B60",
"7	c #BD2D64",
"8	c #A13171",
"9	c #923379",
"0	c #8D347B",
"a	c #C92B5E",
"b	c #C12C62",
"c	c #CA2B5E",
"d	c #BA2D66",
"e	c #B22F6A",
"f	c #A5306F",
"                ",
"                ",
"       .+       ",
"   @# $%.+ &*   ",
"  =-  ;  >  ,*  ",
" ')  @#  !>  ,* ",
" ~   {    %   , ",
"]^  )= @# /%  (_",
":<  [  -}  $  |1",
"2  ^3 )={} ;$  |",
"4  5  [  -  ;  .",
"647: ^3  8- #90!",
"a6b  5    8  #;$",
" c6 2d e~ f= }# ",
"       ]^       ",
"                "};
